<svg xmlns="http://www.w3.org/2000/svg" id="Capa_1" data-name="Capa 1" viewBox="0 0 44.63 20.2"><defs><style>.cls-1{fill:#139ad6;}.cls-2{fill:#263b80;}.cls-3{fill:#232c65;}</style></defs><path class="cls-1" d="M34.37,8H32a.47.47,0,0,0-.35.28l-1,6.17a.19.19,0,0,0,.21.21h1.27a.19.19,0,0,0,.21-.21l.28-1.75a.32.32,0,0,1,.35-.28h.77a2.44,2.44,0,0,0,2.73-2.32,1.83,1.83,0,0,0-.28-1.54A2.82,2.82,0,0,0,34.37,8m.28,2.31c-.14.84-.77.84-1.4.84h-.42l.28-1.61c0-.07.07-.14.21-.14h.14c.42,0,.84,0,1,.28.14.07.14.28.14.63"></path><path class="cls-2" d="M17.19,8H14.81a.47.47,0,0,0-.35.28l-1,6.17a.19.19,0,0,0,.21.21h1.13a.47.47,0,0,0,.35-.28l.28-1.68a.32.32,0,0,1,.35-.28h.77a2.44,2.44,0,0,0,2.73-2.32A1.83,1.83,0,0,0,19,8.52,2.69,2.69,0,0,0,17.19,8m.28,2.31c-.14.84-.77.84-1.4.84h-.35L16,9.5c0-.07.07-.14.21-.14h.14c.42,0,.84,0,1,.28a.75.75,0,0,1,.07.63"></path><path class="cls-2" d="M24.41,10.2H23.29c-.07,0-.21.07-.21.14l-.07.35-.07-.14a1.65,1.65,0,0,0-1.33-.49A2.7,2.7,0,0,0,19,12.38a2.09,2.09,0,0,0,.42,1.75,1.78,1.78,0,0,0,1.48.56,2.24,2.24,0,0,0,1.61-.63l-.07.35a.19.19,0,0,0,.21.21h1.05a.47.47,0,0,0,.35-.28l.63-3.93c-.07-.07-.21-.21-.28-.21M22.8,12.45a1.35,1.35,0,0,1-1.33,1.12,1.12,1.12,0,0,1-.77-.28,1.49,1.49,0,0,1-.21-.84,1.25,1.25,0,0,1,2-.84,1.22,1.22,0,0,1,.28.84"></path><path class="cls-1" d="M41.52,10.2H40.4c-.07,0-.21.07-.21.14l-.07.35-.07-.14a1.65,1.65,0,0,0-1.33-.49,2.7,2.7,0,0,0-2.6,2.32,2.09,2.09,0,0,0,.42,1.75,1.78,1.78,0,0,0,1.48.56,2.24,2.24,0,0,0,1.61-.63l-.07.35a.19.19,0,0,0,.21.21h1a.47.47,0,0,0,.35-.28l.63-3.93c-.07-.07-.14-.21-.28-.21m-1.61,2.25a1.35,1.35,0,0,1-1.33,1.12,1.12,1.12,0,0,1-.77-.28,1.49,1.49,0,0,1-.21-.84,1.25,1.25,0,0,1,2-.84.8.8,0,0,1,.28.84"></path><path class="cls-2" d="M30.51,10.2H29.32a.36.36,0,0,0-.28.14L27.5,12.73l-.7-2.25a.32.32,0,0,0-.35-.21H25.32c-.14,0-.21.14-.21.28l1.27,3.72L25.18,16c-.07.14,0,.35.14.35h1.13a.36.36,0,0,0,.28-.14l3.85-5.54c.21-.21.07-.42-.07-.42"></path><path class="cls-1" d="M42.86,8.17l-1,6.31a.19.19,0,0,0,.21.21h1a.47.47,0,0,0,.35-.28l1-6.17A.19.19,0,0,0,44.19,8H43.07c-.07-.07-.14,0-.21.14"></path><path class="cls-2" d="M8.28,5.86A3.42,3.42,0,0,0,5.62,5H2.11a.6.6,0,0,0-.49.42L.22,14.62A.32.32,0,0,0,.5,15H2.67l.57-3.43v.14a.6.6,0,0,1,.49-.42H4.78A3.72,3.72,0,0,0,8.85,8.1V7.89h0a2.42,2.42,0,0,0-.57-2"></path><path class="cls-1" d="M8.78,7.89h0V8.1c-.5,2.38-2,3.16-4.07,3.16h-1a.6.6,0,0,0-.49.42L2.46,16a.26.26,0,0,0,.28.28H4.57A.39.39,0,0,0,5,15.88v-.07l.35-2.17V13.5a.39.39,0,0,1,.42-.35H6c1.75,0,3.16-.7,3.51-2.81a2.57,2.57,0,0,0-.35-2.1.72.72,0,0,0-.42-.35"></path><path class="cls-3" d="M8.28,7.68c-.07,0-.14-.07-.21-.07a.26.26,0,0,1-.21-.07A3.7,3.7,0,0,0,7,7.47H4.22A.26.26,0,0,0,4,7.54a.38.38,0,0,0-.21.35l-.56,3.65v.14a.6.6,0,0,1,.49-.42H4.78A3.72,3.72,0,0,0,8.85,8.1a.26.26,0,0,1,.07-.21c-.14-.07-.21-.14-.36-.14s-.21-.07-.28-.07"></path></svg>