<svg xmlns="http://www.w3.org/2000/svg" id="Capa_1" data-name="Capa 1" viewBox="0 0 44.63 20.2"><defs><style>.cls-1{fill:#007f64;}</style></defs><path class="cls-1" d="M44.62,6.9A6,6,0,0,0,38.32.7a6.32,6.32,0,0,0-4.4,1.61V.86h-3.1v1.4a5.58,5.58,0,0,0-4-1.56,5.49,5.49,0,0,0-4.05,1.61l-.34.4c-1-1.46-3.07-2-5.74-2a6.5,6.5,0,0,0-4.6,1.37A10,10,0,0,0,6.72.7C3.48.7,1,2.07,1,4.75,1,7,2.87,8.31,5.41,8.5l2.73.2c1,.08,1.87.36,1.87,1.3,0,1.11-1.27,1.69-3,1.69A7,7,0,0,1,2.15,10L0,11.82a10.53,10.53,0,0,0,6.74,2.36,8.14,8.14,0,0,0,5.1-1.46,6,6,0,0,0,4.35,1.48c2.09,0,3.15-.42,3.79-1.33H20v1.34h3.08V12.88a5.63,5.63,0,0,0,3.74,1.31,5.77,5.77,0,0,0,4-1.54V14c0,1.85-1.44,2.85-3.51,2.85a4.66,4.66,0,0,1-3-1.19l-2.39,1.64a8,8,0,0,0,5.33,2.21c3.51,0,6.66-1.83,6.66-5.8V12.61a7,7,0,0,0,4.81,1.59,7.9,7.9,0,0,0,5.59-2.31l-2.07-1.51a5.86,5.86,0,0,1-3.57,1.34c-2.12,0-3.58-.81-3.58-3h9.46S44.63,7.57,44.62,6.9Zm-36-.71L6.11,6c-1.55-.11-2-.68-2-1.25,0-.91.66-1.58,2.63-1.58a7.52,7.52,0,0,1,4.11,1.22L12.14,3.1l1.29,1.33a4.74,4.74,0,0,1,3.45-1.22c2.22,0,3.16.44,3.16,1.68V6.25H15.77a5.57,5.57,0,0,0-3.72,1.16A5.14,5.14,0,0,0,8.65,6.19ZM20,9.54c0,2.05-.88,2.28-3.46,2.28-2.09,0-2.89-.77-2.89-1.66s.84-1.58,2.65-1.58H20Zm10.16,1a3.3,3.3,0,0,1-2.49,1,3.74,3.74,0,0,1-2.67-1c-.55-.6-.59-.94-.62-3.09s.07-2.52.62-3.12a3.69,3.69,0,0,1,2.67-1,3.3,3.3,0,0,1,2.49,1c.56.6.62,1,.62,3.12S30.75,9.94,30.2,10.54Zm4.9-4.1A3.29,3.29,0,0,1,38.65,3a3.32,3.32,0,0,1,3.59,3.42Z"></path></svg>