<svg xmlns="http://www.w3.org/2000/svg" id="Capa_1" data-name="Capa 1" viewBox="0 0 44.63 20.2"><defs><style>.cls-1{fill:#3c58bf;}.cls-2{fill:#293688;}.cls-3{fill:#ffbc00;}.cls-4{fill:#f7981d;}.cls-5{fill:#ed7c00;}.cls-6{fill:#051244;}</style></defs><polygon class="cls-1" points="16.63 16.78 18.8 4.61 22.18 4.61 20.08 16.78 16.63 16.78"></polygon><polygon class="cls-2" points="16.63 16.78 19.4 4.61 22.18 4.61 20.08 16.78 16.63 16.78"></polygon><path class="cls-1" d="M32.32,4.74a8.57,8.57,0,0,0-3.11-.54c-3.38,0-5.82,1.69-5.82,4.13,0,1.82,1.7,2.77,3.05,3.38s1.76,1,1.76,1.55c0,.82-1.08,1.22-2,1.22a7.29,7.29,0,0,1-3.25-.68l-.47-.2L22,16.37a11,11,0,0,0,3.86.68c3.58,0,6-1.69,6-4.26,0-1.42-.88-2.5-2.91-3.38-1.21-.61-2-.95-2-1.56s.61-1.08,2-1.08a6.19,6.19,0,0,1,2.57.47l.34.14.54-2.64Z"></path><path class="cls-2" d="M32.32,4.74a8.57,8.57,0,0,0-3.11-.54C25.83,4.2,24,5.89,24,8.33a3.55,3.55,0,0,0,2.44,3.38c1.35.61,1.76,1,1.76,1.55,0,.82-1.08,1.22-2,1.22a7.29,7.29,0,0,1-3.25-.68l-.47-.2L22,16.37a11,11,0,0,0,3.86.68c3.58,0,6-1.69,6-4.26,0-1.42-.88-2.5-2.91-3.38-1.21-.61-2-.95-2-1.56s.61-1.08,2-1.08a6.19,6.19,0,0,1,2.57.47l.34.14.54-2.64Z"></path><path class="cls-1" d="M38.14,4.61c-.81,0-1.42.06-1.76.87l-5.07,11.3H35l.68-2H40l.4,2h3.25L40.78,4.61Zm-1.56,8.11c.21-.61,1.36-3.58,1.36-3.58s.27-.75.47-1.22l.2,1.15s.68,3,.82,3.72H36.58Z"></path><path class="cls-2" d="M39,4.61c-.81,0-1.42.06-1.76.87l-5.88,11.3H35l.68-2H40l.4,2h3.25L40.78,4.61Zm-2.37,8.11c.28-.67,1.36-3.58,1.36-3.58s.27-.75.47-1.22l.2,1.15s.68,3,.82,3.72H36.58Z"></path><path class="cls-1" d="M10.41,13.13l-.34-1.76A9.78,9.78,0,0,0,5.33,6L8.38,16.85H12L17.51,4.67H13.86Z"></path><path class="cls-2" d="M10.41,13.13l-.34-1.76A9.78,9.78,0,0,0,5.33,6L8.38,16.85H12L17.51,4.67h-3Z"></path><path class="cls-3" d="M1,4.61l.6.13c4.33,1,7.31,3.59,8.46,6.63L8.85,5.62c-.2-.81-.81-1-1.55-1Z"></path><path class="cls-4" d="M1,4.61H1c4.32,1,7.91,3.65,9.06,6.69L8.92,6.5A1.65,1.65,0,0,0,7.3,5.21Z"></path><path class="cls-5" d="M1,4.61H1c4.32,1,7.91,3.65,9.06,6.69L9.26,8.66a2.41,2.41,0,0,0-1.42-2Z"></path><path class="cls-6" d="M13.79,12.72l-2.3-2.3L10.41,13l-.27-1.69A9.78,9.78,0,0,0,5.4,6l3,10.82H12.1Z"></path><polygon class="cls-6" points="20.08 16.78 17.17 13.8 16.63 16.78 20.08 16.78"></polygon><path class="cls-6" d="M27.86,12.59h0c.27.27.4.47.34.74,0,.81-1.08,1.22-2,1.22a7.29,7.29,0,0,1-3.25-.68l-.47-.2L22,16.44a11,11,0,0,0,3.86.68,6.73,6.73,0,0,0,4.94-1.69Z"></path><path class="cls-6" d="M31.78,16.78H35l.68-2H40l.4,2h3.25l-1.15-4.94L38.41,7.92,38.61,9s.68,3.05.82,3.72H36.58c.28-.67,1.36-3.58,1.36-3.58s.27-.75.47-1.22"></path></svg>