<?xml version="1.0" encoding="utf-8"?>
<!-- Generator: Adobe Illustrator 24.1.0, SVG Export Plug-In . SVG Version: 6.00 Build 0)  -->
<svg version="1.1" id="Layer_1" xmlns="http://www.w3.org/2000/svg" xmlns:xlink="http://www.w3.org/1999/xlink" x="0px" y="0px"
	 viewBox="0 0 335.4 144.3" style="enable-background:new 0 0 335.4 144.3;" xml:space="preserve">
<style type="text/css">
	.st0{fill:#1F1F1F;}
	.st1{fill:none;stroke:#000000;stroke-miterlimit:10;}
	.st2{fill:#412B88;}
	.st3{fill:#FFFFFF;}
	.st4{fill:none;stroke:#FFFFFF;stroke-miterlimit:10;}
</style>
<path class="st3" d="M300.9,29.1c0.4-0.9,1-1.7,1.7-2.3c0.7-0.7,1.6-1.2,2.5-1.6c1-0.3,2-0.5,3-0.5c1,0,2,0.2,2.9,0.5
	c0.9,0.4,1.8,0.9,2.5,1.6c0.7,0.6,1.3,1.4,1.7,2.3c0.4,1,0.7,2.1,0.7,3.2c0,1.1-0.3,2.1-0.7,3.1c-0.4,0.9-0.9,1.8-1.7,2.4
	c-0.7,0.7-1.6,1.2-2.5,1.6c-0.9,0.3-1.9,0.5-2.9,0.5c-1,0-2-0.2-3-0.5c-0.9-0.4-1.8-0.9-2.5-1.6c-0.8-0.6-1.3-1.5-1.7-2.4
	c-0.4-1-0.6-2-0.6-3.1C300.3,31.2,300.5,30.1,300.9,29.1 M302.8,34.7c0.3,0.7,0.7,1.3,1.2,1.9c0.5,0.5,1.1,0.9,1.8,1.2
	c0.7,0.3,1.5,0.5,2.3,0.5c0.8,0,1.5-0.2,2.2-0.5c0.7-0.3,1.3-0.7,1.8-1.2c0.5-0.6,0.9-1.2,1.2-1.9c0.3-0.8,0.5-1.6,0.5-2.4
	c0-0.8-0.2-1.6-0.5-2.4c-0.3-0.7-0.7-1.3-1.2-1.9c-0.5-0.5-1.1-0.9-1.8-1.2c-0.7-0.3-1.4-0.5-2.2-0.5c-0.8,0-1.6,0.2-2.3,0.5
	c-0.7,0.3-1.3,0.7-1.8,1.2c-0.5,0.6-0.9,1.2-1.2,1.9c-0.3,0.8-0.5,1.6-0.5,2.4C302.4,33.1,302.5,33.9,302.8,34.7 M308.2,28
	c0.9-0.1,1.7,0.2,2.5,0.6c0.6,0.4,1,1.2,0.9,1.9c0,0.3-0.1,0.7-0.2,1c-0.1,0.3-0.3,0.5-0.5,0.7l-0.7,0.4l-0.9,0.2l2.3,3.7h-1.8
	l-2-3.6h-1.1v3.6H305V28H308.2z M308.2,31.6l1.2-0.2c0.3-0.2,0.5-0.6,0.5-1c0-0.2-0.1-0.4-0.2-0.6l-0.4-0.3h-2.6v2.1H308.2z"/>
<g>
	<path class="st3" d="M306.2,77.4c-0.1,2.7-0.9,5.4-2.3,7.8c-1.4,2-3.2,3.7-5.3,4.9c-2.2,1.3-4.6,2.2-7.1,2.7
		c-2.6,0.5-5.3,0.8-8,0.8c-2.4,0-4.9-0.2-7.3-0.6c-2.4-0.3-4.7-0.9-6.8-2c-2-0.9-3.8-2.3-5.1-4.1c-1.4-2.1-2-4.5-1.9-7V54.8
		c0-2.1-0.1-4.2-0.4-6.3c-0.1-1.5-0.5-3-1.3-4.4h13.4c0.3,0.7,0.5,1.4,0.6,2.2c0.2,0.8,0.3,1.6,0.4,2.4c2-2.1,4.6-3.7,7.4-4.5
		c2.8-0.9,5.8-1.4,8.8-1.4c2.2,0,4.3,0.3,6.4,0.9c1.9,0.5,3.7,1.4,5.2,2.6c1.5,1.2,2.7,2.7,3.5,4.5c0.9,2,1.4,4.2,1.3,6.4
		c0.1,2.4-0.4,4.7-1.5,6.8c-0.9,1.7-2.2,3.1-3.7,4.2c-1.6,1.1-3.3,1.9-5.2,2.4c-2,0.5-3.9,0.9-5.9,1.2c-2,0.3-4,0.6-5.9,0.8
		l-5.1,0.8c-1.3,0.3-2.5,0.9-3.6,1.7c-0.8,0.8-1.3,1.9-1.2,3.1c-0.1,1.2,0.2,2.3,0.7,3.4c0.4,0.8,1.1,1.5,1.9,1.9
		c0.8,0.5,1.7,0.8,2.7,1l3.3,0.2c2.2,0.1,4.3-0.5,6.1-1.7c1.5-1.1,2.4-3,2.7-5.6H306.2z M275.6,67.6c0.6-0.5,1.3-0.9,2.1-1.1
		l2.7-0.7l3-0.5l3.2-0.5c1-0.1,2-0.4,3-0.7c0.9-0.3,1.8-0.7,2.5-1.3c0.7-0.5,1.3-1.2,1.7-2c0.4-0.9,0.6-2,0.6-3c0-1-0.2-2.1-0.6-3
		c-0.4-0.8-1-1.5-1.8-1.9c-0.8-0.5-1.7-0.9-2.6-1c-1-0.2-2.1-0.3-3.1-0.3c-2.1-0.1-4.2,0.3-6,1.3c-1.3,0.7-2.4,1.8-3.2,3.1
		c-0.7,1.1-1.1,2.4-1.3,3.7c-0.1,1.3-0.2,2.3-0.2,3L275.6,67.6z"/>
	<rect x="244.1" y="25.8" class="st3" width="13.2" height="66.6"/>
	<path class="st3" d="M226.2,92.3v-6.2H226c-1.4,2.5-3.6,4.4-6.1,5.7c-2.6,1.2-5.4,1.8-8.2,1.8c-3.4,0.1-6.8-0.7-9.8-2.2
		c-2.7-1.3-5-3.3-6.8-5.7c-1.9-2.4-3.2-5.2-4-8.2c-0.9-3.2-1.3-6.6-1.3-9.9c0-3.1,0.4-6.3,1.3-9.3c0.8-2.9,2.1-5.5,3.9-7.9
		c1.8-2.3,4-4.1,6.6-5.5c2.9-1.4,6.1-2.2,9.3-2.1c2.9,0,5.7,0.7,8.3,1.9c2.5,1.2,4.6,3,6.2,5.3h0.2V25.8h13.2v66.5H226.2z M209,54
		c-1.4,0.8-2.6,2-3.5,3.4c-1,1.5-1.6,3.2-1.9,4.9c-0.8,3.8-0.8,7.6,0,11.4c0.4,1.8,1.1,3.5,2,5c1.9,3.1,5.3,5,9,4.9
		c1.9,0,3.8-0.4,5.4-1.4c1.5-0.8,2.7-2,3.6-3.5c0.9-1.5,1.6-3.2,1.9-4.9c0.3-1.9,0.5-3.9,0.5-5.8c0-1.9-0.2-3.8-0.6-5.7
		c-0.3-1.7-1-3.4-1.9-4.9c-0.9-1.4-2.2-2.6-3.6-3.4c-1.7-0.9-3.5-1.3-5.4-1.3C212.6,52.6,210.7,53.1,209,54"/>
	<polygon class="st3" points="171.5,92.5 143.7,47.8 143.5,47.8 143.5,92.5 129.8,92.5 129.8,25.9 144.4,25.9 172.1,70.5 
		172.3,70.5 172.3,25.9 186,25.9 186,92.5 	"/>
	<path class="st3" d="M112.3,92.3v-6.8H112c-1.5,2.7-3.8,4.8-6.5,6.2c-2.6,1.2-5.4,1.9-8.2,1.9c-3,0.1-5.9-0.4-8.7-1.5
		c-2.1-0.8-4-2.2-5.4-4c-1.3-1.9-2.3-4-2.8-6.2c-0.5-2.7-0.7-5.5-0.7-8.2V44.1h13.2v27.2c0,4,0.6,6.9,1.9,8.9s3.4,2.9,6.6,2.9
		s6.2-1.1,7.8-3.2c1.6-2.1,2.4-5.7,2.4-10.6V44.1h13.3v48.2H112.3z"/>
	<path class="st3" d="M40,25.8v24.3h0.2c1.5-2.5,3.8-4.5,6.5-5.6c2.8-1.1,5.7-1.7,8.7-1.7c2.4,0.1,4.8,0.5,7,1.3
		c2.5,0.9,4.7,2.3,6.5,4.2c2.2,2.2,3.9,4.8,5,7.7c1.4,3.8,2,7.8,1.9,11.8c0,3.2-0.4,6.5-1.3,9.6c-0.8,3-2.1,5.8-4,8.3
		c-1.8,2.4-4.1,4.3-6.7,5.7c-3,1.5-6.3,2.3-9.6,2.2c-2.9,0-5.8-0.6-8.4-1.8c-2.7-1.1-4.9-3.1-6.2-5.7h-0.2v6.2H26.8V25.8H40z
		 M62,62.5c-0.3-1.8-0.9-3.5-1.9-5c-0.9-1.4-2.1-2.6-3.5-3.5c-1.7-0.9-3.6-1.3-5.5-1.3c-1.9-0.1-3.8,0.4-5.4,1.3
		c-1.5,0.8-2.7,1.9-3.6,3.3c-0.9,1.5-1.6,3.2-1.9,4.9c-0.8,3.7-0.8,7.6,0,11.3c0.3,1.8,1,3.5,1.9,5.1c0.9,1.5,2.1,2.7,3.5,3.6
		c1.6,1,3.4,1.5,5.3,1.4c1.9,0.1,3.8-0.4,5.5-1.3c1.4-0.9,2.7-2.1,3.6-3.5c0.9-1.5,1.6-3.2,2-5c0.4-1.9,0.6-3.8,0.6-5.7
		C62.6,66.2,62.4,64.3,62,62.5"/>
</g>
<line class="st4" x1="77.3" y1="114.4" x2="24" y2="114.4"/>
<g>
	<path class="st3" d="M144.5,116.7c0,1.7-0.6,3-1.8,3.9c-1.2,0.9-3,1.3-5.3,1.3c-4.3,0-6.6-1.8-6.8-5.4h3c0.1,1,0.5,1.7,1.1,2.2
		c0.6,0.4,1.6,0.6,2.8,0.6c1.4,0,2.4-0.2,3.1-0.6c0.6-0.4,0.9-1.1,0.9-2.1v-10h3V116.7z"/>
	<path class="st3" d="M167.7,122h-3.3l-1.8-3.3h-10.3l-1.8,3.3h-3.3l8.3-15.3h3.7L167.7,122z M161.2,116l-3.6-6.8l-3.7,6.8H161.2z"
		/>
	<polygon class="st3" points="188,106.7 179.3,116 179.3,122 176.3,122 176.3,116 167.7,106.7 171.3,106.7 177.8,113.7 184.4,106.7 
			"/>
	<path class="st3" d="M206.9,114.1c1.6,0.8,2.4,2.1,2.4,3.8c0,2.7-2,4.1-6,4.1H191v-15.3h12.6c1.6,0,2.9,0.4,3.8,1.2
		c0.9,0.8,1.4,1.8,1.4,3.1C208.8,112.3,208.2,113.3,206.9,114.1 M203.6,112.9c0.7,0,1.2-0.2,1.6-0.5c0.4-0.3,0.6-0.8,0.6-1.3
		c0-1.1-0.7-1.7-2.2-1.7H194v3.5H203.6z M203.4,119.3c0.9,0,1.7-0.2,2.2-0.5c0.5-0.3,0.8-0.7,0.8-1.3c0-1.3-0.9-1.9-2.7-1.9H194v3.7
		H203.4z"/>
	<polygon class="st3" points="230.2,122 213.7,122 213.7,106.7 229.6,106.7 229.6,109.4 216.7,109.4 216.7,112.7 225.7,112.7 
		225.7,115.4 216.7,115.4 216.7,119.3 230.2,119.3 	"/>
	<polygon class="st3" points="251.1,122 234.7,122 234.7,106.7 250.5,106.7 250.5,109.4 237.6,109.4 237.6,112.7 246.6,112.7 
		246.6,115.4 237.6,115.4 237.6,119.3 251.1,119.3 	"/>
	<polygon class="st3" points="121.6,106.7 112.9,116 112.9,122 109.9,122 109.9,116 101.3,106.7 104.9,106.7 111.4,113.7 
		117.9,106.7 	"/>
	<path class="st3" d="M97.4,114.1c1.6,0.8,2.4,2.1,2.4,3.8c0,2.7-2,4.1-6,4.1H81.4v-15.3H94c1.6,0,2.9,0.4,3.8,1.2
		c0.9,0.8,1.4,1.8,1.4,3.1C99.2,112.3,98.6,113.3,97.4,114.1 M94,112.9c0.7,0,1.2-0.2,1.6-0.5c0.4-0.3,0.6-0.8,0.6-1.3
		c0-1.1-0.7-1.7-2.2-1.7h-9.7v3.5H94z M93.8,119.3c0.9,0,1.7-0.2,2.2-0.5c0.5-0.3,0.8-0.7,0.8-1.3c0-1.3-0.9-1.9-2.7-1.9h-9.7v3.7
		H93.8z"/>
</g>
<line class="st4" x1="308.4" y1="114.4" x2="255.2" y2="114.4"/>
</svg>
