<?xml version="1.0" encoding="utf-8"?>
<!-- Generator: Adobe Illustrator 16.0.0, SVG Export Plug-In . SVG Version: 6.00 Build 0)  -->
<svg version="1.2" baseProfile="tiny" id="Layer_1" xmlns="http://www.w3.org/2000/svg" xmlns:xlink="http://www.w3.org/1999/xlink"
	 x="0px" y="0px" width="1030px" height="230px" viewBox="0 0 1030 230" xml:space="preserve">
<g>
	<g>
		<path d="M11.09,67.403c0-19.226,4.141-34.312,12.423-44.96c6.211-7.987,18.043-17.156,39.34-17.156
			c21.297,0,32.833,9.169,39.044,17.156c8.578,10.944,12.719,25.734,12.719,44.96v13.902h-28.1V67.403
			c0-16.86-3.845-26.029-8.578-30.17c-5.029-4.141-11.24-4.141-15.085-4.141c-4.437,0-10.057,0-15.085,4.141
			s-8.874,13.311-8.874,30.17v93.47c0,12.719,2.367,22.185,6.803,27.805c0.888,1.479,2.662,2.957,5.324,4.437
			c2.663,1.479,6.508,2.366,11.832,2.366c10.648,0,14.79-4.141,17.156-6.803c4.437-5.916,6.507-15.086,6.507-27.805v-13.902h28.1
			v13.902c0,19.227-4.141,34.016-12.719,44.961c-6.212,7.986-17.748,17.451-39.044,17.451c-10.648,0-18.635-2.366-25.143-5.916
			c-6.507-3.254-10.944-7.69-14.198-11.535C15.231,195.186,11.09,180.1,11.09,160.873V67.403z"/>
		<path d="M206.311,162.352h-37.861l-13.902,60.934h-28.692L176.14,5.287h22.184L249.2,223.285h-28.988L206.311,162.352z
			 M174.957,134.548h24.846L187.38,81.009L174.957,134.548z"/>
		<path d="M336.164,222.989L282.921,91.066v131.923h-27.804V4.991h23.368l53.242,131.923V4.991h28.101v217.999H336.164z"/>
	</g>
	<g>
		<path d="M562.932,144.307L593.693,5.285h28.692l-48.214,217.999h-22.48L521.225,83.965l-30.762,139.318h-22.48L419.768,5.285
			h28.692l30.762,139.022L509.984,5.285h22.48L562.932,144.307z"/>
		<path d="M722.954,5.285v27.805h-62.412v67.145h62.412v27.804h-62.412v67.44h62.412v27.805h-90.217V5.285H722.954z"/>
		<path d="M823.228,162.35h-37.861l-13.902,60.934h-28.691L793.057,5.285h22.185l50.876,217.999H837.13L823.228,162.35z
			 M791.874,134.546h24.847l-12.424-53.539L791.874,134.546z"/>
		<path d="M973.195,222.987h-28.101v-64.482c0-19.227-9.17-28.692-27.805-28.692h-17.451v93.175h-27.805V4.989h45.256
			c37.565,0,55.313,21.593,55.313,62.117c0,20.114-4.438,35.495-13.015,45.848c-0.296,0.295-0.888,0.887-1.184,1.479
			c-0.592,0.592-1.183,1.184-1.774,1.479c10.648,10.353,16.564,24.55,16.564,42.594V222.987z M899.839,101.713h17.451
			c7.396,0,12.72-0.887,15.677-2.662c2.662-1.775,4.438-3.254,5.324-4.141c4.438-5.62,6.508-14.79,6.508-27.804
			c0-14.494-2.366-23.072-6.803-28.101c-4.733-4.732-11.536-5.916-20.706-5.916h-17.451V101.713z"/>
	</g>
	<rect x="999.104" y="202.805" width="20.922" height="20.924"/>
</g>
</svg>
