<?xml version="1.0" encoding="utf-8"?>
<!-- Generator: Adobe Illustrator 16.0.0, SVG Export Plug-In . SVG Version: 6.00 Build 0)  -->
<svg version="1.2" baseProfile="tiny" id="Layer_1" xmlns="http://www.w3.org/2000/svg" xmlns:xlink="http://www.w3.org/1999/xlink"
	 x="0px" y="0px" width="240.94px" height="55.48px" viewBox="0 0 240.94 55.48" xml:space="preserve">
<rect fill="#422C88" width="240.94" height="55.48"/>
<g>
	<g>
		<path fill="#FFFFFF" d="M9.569,17.849c0-3.979,0.857-7.101,2.571-9.305c1.286-1.653,3.734-3.55,8.142-3.55s6.795,1.897,8.081,3.55
			c1.775,2.265,2.632,5.326,2.632,9.305v2.877H25.18v-2.877c0-3.489-0.796-5.387-1.775-6.244c-1.041-0.857-2.327-0.857-3.122-0.857
			c-0.918,0-2.082,0-3.123,0.857c-1.041,0.857-1.836,2.755-1.836,6.244v19.345c0,2.632,0.49,4.591,1.408,5.754
			c0.184,0.306,0.551,0.612,1.102,0.918c0.551,0.306,1.347,0.49,2.449,0.49c2.204,0,3.061-0.857,3.55-1.408
			c0.918-1.224,1.347-3.122,1.347-5.754v-2.877h5.815v2.877c0,3.979-0.857,7.04-2.632,9.305c-1.286,1.653-3.673,3.612-8.081,3.612
			c-2.204,0-3.857-0.49-5.204-1.225c-1.347-0.673-2.265-1.591-2.938-2.387c-1.714-2.204-2.571-5.326-2.571-9.305V17.849z"/>
		<path fill="#FFFFFF" d="M49.971,37.5h-7.836l-2.877,12.611h-5.938L43.727,4.993h4.591l10.529,45.118h-5.999L49.971,37.5z
			 M43.481,31.746h5.143l-2.571-11.081L43.481,31.746z"/>
		<path fill="#FFFFFF" d="M76.844,50.05l-11.02-27.304V50.05H60.07V4.932h4.836l11.019,27.303V4.932h5.816V50.05H76.844z"/>
	</g>
	<g>
		<path fill="#FFFFFF" d="M123.773,33.765l6.367-28.772h5.938L126.1,50.111h-4.652l-6.305-28.834l-6.367,28.834h-4.653L94.144,4.993
			h5.938l6.367,28.772l6.367-28.772h4.653L123.773,33.765z"/>
		<path fill="#FFFFFF" d="M156.89,4.993v5.754h-12.917v13.896h12.917v5.755h-12.917v13.957h12.917v5.755h-18.672V4.993H156.89z"/>
		<path fill="#FFFFFF" d="M177.64,37.5h-7.836l-2.877,12.611h-5.938l10.407-45.118h4.591l10.53,45.118h-6L177.64,37.5z
			 M171.15,31.746h5.143l-2.571-11.081L171.15,31.746z"/>
		<path fill="#FFFFFF" d="M208.676,50.049h-5.815V36.704c0-3.979-1.898-5.938-5.755-5.938h-3.611v19.283h-5.755V4.932h9.366
			c7.774,0,11.448,4.469,11.448,12.856c0,4.163-0.919,7.346-2.693,9.489c-0.062,0.061-0.185,0.184-0.245,0.306
			c-0.123,0.122-0.245,0.245-0.367,0.306c2.203,2.144,3.428,5.081,3.428,8.815V50.049z M193.494,24.95h3.611
			c1.53,0,2.633-0.184,3.245-0.551c0.551-0.367,0.918-0.673,1.102-0.856c0.918-1.163,1.347-3.062,1.347-5.755
			c0-3-0.489-4.775-1.408-5.815c-0.979-0.98-2.388-1.225-4.285-1.225h-3.611V24.95z"/>
	</g>
	<rect x="214.035" y="45.873" fill="#FFFFFF" width="4.33" height="4.33"/>
</g>
</svg>
